<svg xmlns="http://www.w3.org/2000/svg" width="1000" height="750" viewBox="0 0 1000 750"><defs><linearGradient id="b" x1="0" x2="1"><stop stop-color="#0b2737"/><stop offset="1" stop-color="#89421e"/></linearGradient></defs><rect width="1000" height="750" fill="url(#b)"/><path d="M545 140c-10 115-124 150-80 259 26-51 77-67 93-125 103 104 154 212 55 304-85 79-247 53-284-65-27-86 17-167 91-220-11 70 4 109 45 143-5-96 55-162 80-296z" fill="#f47b36"/><path d="M510 365c67 64 75 137 20 178-49 36-126 4-128-57-2-43 30-77 68-108-6 47 5 73 40 96-12-50 1-80 0-109z" fill="#ffd07a"/><text x="40" y="70" fill="#fff" font-family="Arial" font-size="34" font-weight="700">LSZH &amp; FIRE-SAFE CABLES</text></svg>